<?xml version="1.0" encoding="UTF-8"?>
<svg id="katman_1" data-name="katman 1" xmlns="http://www.w3.org/2000/svg" viewBox="0 0 773.25 496.91">
  <defs>
    <style>
      .cls-1 {
        fill: #fff;
        stroke-width: 0px;
      }
    </style>
  </defs>
  <path class="cls-1" d="m423.03.39c-1.22,6.57-1.79,12.69-3.52,18.47-7.78,26.03-31.17,43.87-58.34,44.08-37.46.29-74.92-.03-112.38.13-39.88.17-76.51,11.12-108.95,34.55-41.82,30.2-67.63,70.84-74.96,121.96-13.9,96.93,49.83,183.17,139.93,203.33,14.31,3.2,29.31,4.29,44.02,4.5,41.12.58,82.25.07,123.37.22,27.37.1,47.41,12.39,59.38,37.17,3.79,7.84,5.51,16.26,5.41,25.51-1.89.12-3.49.31-5.09.31-63.1,0-126.21.26-189.31-.11-110.99-.66-208.68-77.79-235.32-185.34C-26.31,169.66,59.84,33.37,196.64,5.35,214.99,1.6,233.49.06,252.15.05,306.26,0,360.38,0,414.49,0c2.45,0,4.89.22,8.54.39Z"/>
  <path class="cls-1" d="m645.1,207.24c0,22.64.39,45.29-.08,67.92-.95,46.2-27.36,77.65-72.65,86.17-27.01,5.08-54.01,4.56-80.22-4.73-32.01-11.34-49.28-34.91-54.24-67.86-1.4-9.33-1.72-18.89-1.76-28.35-.19-41.12-.09-82.25-.09-123.37,0-6.59.02-6.6,6.54-6.61,20.64,0,41.29.14,61.93-.12,4.75-.06,5.77,1.51,5.75,5.95-.16,40.62-.18,81.25,0,121.87.02,5.24.75,10.69,2.33,15.66,3.34,10.55,11.17,16.34,22.08,17.41,4.91.48,10.07.54,14.88-.4,12.37-2.44,20.48-12.38,21-25.73.47-11.97.32-23.97.33-35.95.03-30.8.11-61.6-.1-92.4-.04-5.05,1.37-6.5,6.47-6.43,20.64.29,41.29.26,61.93,0,4.72-.06,6.26,1.12,6.21,6.03-.25,23.64-.11,47.28-.11,70.92h-.18Z"/>
  <path class="cls-1" d="m409.35,187.43c-15.91,3.88-31.21,7.61-46.51,11.33-1.45.35-2.97.54-4.35,1.07-6.02,2.3-10.15,2.23-14.36-4.55-5.89-9.5-24.82-11.34-34.09-4.82-6.97,4.91-6.58,14.27,1.41,17.52,7.94,3.22,16.61,4.58,24.76,7.38,16.3,5.6,32.87,10.69,48.57,17.71,16.71,7.47,28.31,20.37,31.44,39.24,6.83,41.15-14.93,75.92-55.23,87.02-30.21,8.33-60.35,6.73-89.55-4.82-21.91-8.67-37.26-23.91-43.77-47.21-1.06-3.81-.32-5.18,3.46-6.32,18.75-5.65,37.4-11.62,56.02-17.45,9.32,17.24,27.53,24.75,45.48,18.66,3.14-1.07,6.38-3.15,8.48-5.67,4.28-5.13,2.22-12.51-4.59-15.02-7.9-2.91-16.29-4.47-24.4-6.83-12.1-3.52-24.34-6.71-36.18-10.96-55.14-19.79-52.59-90.8-14.5-117.92,21.34-15.19,45.14-20.5,70.78-18.88,17.55,1.11,34.01,5.94,48.56,16.22,15.22,10.76,24.59,25.33,28.58,44.3Z"/>
  <path class="cls-1" d="m773.25,302.37c-4.58,13.14-8.27,25.17-12.92,36.8-9.08,22.7-21.7,43.39-37.42,62.12-2.36,2.81-2.59,4.96-1.22,8.34,8.06,20.02,15.86,40.15,23.67,60.27,3.51,9.04,1.65,17.08-5,22.6-6.52,5.42-14.67,5.9-22.72,1.05-19.92-12-39.79-24.11-58.56-35.5-17.22,7.16-33.67,14.69-50.62,20.88-18.64,6.81-38.26,9.63-58,11.43-4.52.41-5.03-1.68-4.67-5.21,3.25-31.8,18.56-55.71,48.47-67.55,37.87-14.99,68.1-38.53,91.65-71.71,19.34-27.25,46.95-40.88,80.09-43.52,1.78-.14,3.58-.02,7.26-.02Z"/>
  <path class="cls-1" d="m207.47,130.45v229.01h-73.74c-.11-2.18-.29-4.14-.3-6.1-.02-72.08-.03-144.16-.04-216.25,0-6.65.02-6.66,6.45-6.66,20.64,0,41.28,0,61.92-.01,1.78,0,3.56,0,5.7,0Z"/>
</svg>